<?xml version="1.0" standalone="no"?>
<!DOCTYPE svg PUBLIC "-//W3C//DTD SVG 20010904//EN"
 "http://www.w3.org/TR/2001/REC-SVG-20010904/DTD/svg10.dtd">
<svg version="1.0" xmlns="http://www.w3.org/2000/svg"
 width="1904.000000pt" height="1082.000000pt" viewBox="0 0 1904.000000 1082.000000"
 preserveAspectRatio="xMidYMid meet">
<metadata>
Created by potrace 1.15, written by Peter Selinger 2001-2017
</metadata>
<g transform="translate(0.000000,1082.000000) scale(0.100000,-0.100000)"
fill="#000000" stroke="none">
<path d="M0 10540 l0 -280 9515 0 9515 0 0 280 0 280 -9515 0 -9515 0 0 -280z"/>
<path d="M9510 9414 c0 -55 0 -55 -22 -40 -54 38 -118 -2 -118 -74 0 -72 64
-112 118 -74 20 14 22 14 22 0 0 -9 7 -16 15 -16 13 0 15 21 15 130 0 109 -2
130 -15 130 -12 0 -15 -13 -15 -56z"/>
<path d="M10160 9340 c0 -80 4 -130 10 -130 6 0 10 7 10 16 0 14 2 14 22 0 54
-38 118 2 118 74 0 72 -64 112 -118 74 -22 -15 -22 -15 -22 40 0 31 -4 56 -10
56 -6 0 -10 -50 -10 -130z"/>
<path d="M7557 9433 c-7 -11 -87 -212 -87 -218 0 -3 6 -5 13 -5 6 0 19 15 27
33 14 30 18 32 65 32 47 0 51 -2 64 -32 8 -18 21 -33 28 -33 7 0 13 1 13 3 0
2 -20 52 -44 112 -40 100 -64 132 -79 108z"/>
<path d="M8670 9433 c0 -4 14 -56 32 -115 41 -138 56 -142 88 -25 13 45 26 88
30 95 4 8 17 -23 29 -71 13 -46 27 -90 31 -97 17 -27 37 1 63 91 16 52 30 102
33 112 3 10 0 17 -9 17 -8 0 -17 -14 -21 -32 -3 -17 -16 -63 -28 -102 l-21
-71 -18 60 c-10 33 -23 79 -29 103 -15 60 -36 54 -56 -15 -48 -171 -40 -168
-76 -34 -13 47 -29 86 -36 89 -6 2 -12 0 -12 -5z"/>
<path d="M9943 9332 c-47 -117 -48 -122 -32 -122 5 0 17 16 25 35 14 33 17 35
64 35 48 0 51 -2 67 -35 27 -56 47 -45 24 13 -90 228 -88 227 -148 74z"/>
<path d="M11100 9325 c0 -94 3 -115 15 -115 11 0 15 20 17 97 l3 96 35 -96
c19 -54 40 -97 46 -97 7 0 29 44 50 98 l39 97 3 -97 c4 -139 22 -124 22 18 0
112 -1 115 -21 112 -18 -2 -28 -21 -53 -90 -17 -48 -34 -89 -36 -92 -3 -3 -21
38 -40 90 -29 81 -37 94 -57 94 -23 0 -23 -2 -23 -115z"/>
<path d="M8065 9365 c-30 -30 -34 -92 -7 -124 24 -30 84 -38 118 -16 34 22 24
30 -21 15 -30 -10 -40 -9 -60 4 -46 30 -32 46 40 46 l65 0 0 29 c0 63 -89 93
-135 46z"/>
<path d="M8241 9378 c1 -31 58 -163 71 -166 9 -2 21 21 37 70 l24 73 23 -60
c13 -33 23 -66 23 -73 1 -8 8 -12 17 -10 10 2 27 33 45 83 33 93 33 95 15 95
-9 0 -20 -25 -31 -65 -10 -36 -21 -68 -25 -70 -3 -2 -16 27 -29 66 -13 41 -28
69 -36 69 -8 0 -23 -28 -36 -69 -13 -39 -26 -68 -30 -66 -4 3 -15 34 -24 70
-11 39 -23 65 -31 65 -8 0 -14 -6 -13 -12z"/>
<path d="M9035 9365 c-51 -50 -18 -155 49 -155 55 0 96 39 96 90 0 77 -92 119
-145 65z"/>
<path d="M10403 9366 c-22 -19 -28 -32 -28 -66 0 -76 80 -116 139 -69 22 17
26 28 26 69 0 41 -4 52 -26 69 -35 28 -77 26 -111 -3z"/>
<path d="M11433 9378 c-12 -6 -27 -23 -33 -39 -34 -82 57 -163 128 -113 32 22
17 36 -18 16 -27 -15 -32 -16 -57 -2 -15 9 -29 23 -31 33 -3 15 6 17 62 17 36
0 67 4 70 9 11 17 -15 68 -40 80 -30 13 -52 13 -81 -1z"/>
<path d="M2537 8633 c4 -139 10 -241 16 -244 5 -4 6 -12 2 -19 -8 -12 -7 -114
1 -280 7 -143 7 -327 0 -339 -4 -6 -6 -11 -4 -12 2 0 57 -4 123 -9 324 -22
451 -32 462 -35 8 -3 8 -15 -2 -49 -11 -35 -12 -67 -5 -138 5 -51 8 -131 7
-177 l-2 -84 -75 -37 c-41 -21 -105 -52 -141 -68 -62 -29 -68 -34 -97 -94 -40
-82 -68 -211 -81 -373 -6 -71 -16 -182 -22 -245 -11 -111 -7 -425 8 -569 l6
-64 -31 5 c-35 5 -40 -3 -16 -23 13 -10 17 -10 25 2 7 12 9 11 9 -2 0 -9 -8
-19 -19 -22 -13 -3 -28 8 -52 39 -36 46 -50 50 -59 18 -4 -16 -11 -18 -35 -13
-16 4 -22 7 -12 8 12 1 17 10 17 31 0 27 -3 30 -32 31 l-33 1 30 7 c16 3 31
13 33 21 2 12 -7 14 -44 12 -44 -4 -46 -5 -42 -33 3 -15 1 -26 -4 -23 -4 3 -8
16 -8 30 0 20 -5 24 -32 24 -32 0 -33 -1 -36 -50 l-3 -50 31 6 c18 4 30 2 30
-4 0 -6 -12 -12 -27 -14 l-28 -3 -3 -1739 c-1 -1282 1 -1742 9 -1752 9 -12
133 -14 709 -14 624 0 698 2 704 16 3 8 10 12 16 9 6 -4 8 -11 5 -16 -4 -5 3
-9 15 -9 12 0 18 5 15 10 -3 6 -1 10 5 10 7 0 10 7 6 15 -3 8 -3 15 0 15 2 0
9 -12 14 -26 9 -22 13 -24 25 -14 12 10 15 10 15 0 0 -8 3 -10 7 -6 4 4 -10
22 -32 41 -24 22 -41 31 -45 24 -7 -10 -20 11 -20 32 0 12 41 -12 58 -33 7
-10 17 -18 21 -18 15 0 22 32 11 45 -11 13 0 27 30 38 13 5 12 6 -1 6 -13 1
-15 8 -9 41 4 21 4 41 -1 42 -4 2 -10 17 -14 33 -6 29 -6 29 7 7 8 -12 17 -20
20 -17 9 9 -16 55 -29 55 -7 0 -13 12 -13 26 0 14 4 23 10 19 6 -4 13 7 16 25
l7 31 20 -41 c16 -30 26 -40 42 -38 11 2 27 -4 36 -13 19 -19 43 -103 36 -124
-4 -8 -4 -22 -1 -30 11 -29 24 -15 25 28 2 38 2 37 9 -16 4 -32 13 -64 19 -70
18 -18 13 -28 -16 -25 -21 2 -28 -2 -33 -22 -6 -23 -7 -24 -17 -6 -12 21 -38
12 -29 -10 7 -18 -13 -18 -57 1 -43 18 -47 18 -47 6 0 -5 9 -13 20 -16 11 -4
18 -11 15 -16 -4 -5 532 -9 1384 -9 l1391 0 0 41 c0 22 5 50 12 62 6 12 11 34
10 49 -2 22 4 29 33 39 19 7 37 19 40 27 4 12 3 13 -9 3 -9 -8 -27 -10 -46 -6
-17 4 -30 2 -30 -3 0 -14 -81 3 -91 19 -5 8 -9 17 -9 21 0 13 39 28 74 28 25
0 36 5 36 14 0 14 97 86 116 86 8 0 30 -32 79 -120 11 -19 29 -49 41 -65 12
-17 24 -37 27 -45 3 -8 5 28 5 80 0 52 -2 89 -5 83 -2 -7 -18 -13 -34 -13 -27
0 -29 2 -19 20 6 11 8 25 5 30 -5 9 23 15 48 11 11 -2 9 97 -3 104 -5 3 -7 0
-4 -8 3 -9 -3 -16 -18 -20 -76 -16 -142 -38 -152 -51 -6 -7 -23 -21 -38 -30
-32 -21 -44 -8 -39 40 l2 32 -79 -5 c-65 -5 -80 -3 -85 10 -5 13 3 14 52 10
41 -4 61 -2 66 7 6 10 -3 12 -42 8 l-49 -5 7 46 c4 25 8 78 10 116 1 39 6 77
11 86 4 10 10 66 13 125 4 60 10 129 15 154 8 38 9 34 5 -30 -3 -50 -1 -70 5
-60 5 8 10 30 10 48 0 17 5 32 10 32 6 0 10 -15 10 -34 0 -19 5 -38 11 -42 9
-5 10 3 5 29 -4 21 -2 38 4 42 12 7 13 -50 4 -183 -4 -50 -11 -89 -15 -86 -5
3 -5 -5 0 -18 6 -15 5 -31 -1 -41 -5 -10 -7 -25 -5 -35 3 -12 5 -11 6 6 2 36
15 26 45 -35 52 -107 45 -103 121 -87 36 8 115 15 175 16 l110 3 0 465 0 466
-45 44 c-27 26 -40 47 -34 51 7 4 5 9 -6 12 -9 4 -13 3 -10 -3 16 -25 -15 -6
-50 32 -22 23 -33 37 -25 31 16 -11 37 -11 83 2 18 5 33 3 40 -4 16 -16 47
-14 47 4 0 22 -46 48 -74 41 -15 -4 -26 -1 -29 7 -4 9 -7 9 -18 0 -10 -10 -17
-9 -33 5 -11 9 -16 11 -12 5 5 -8 1 -13 -9 -13 -11 0 -15 5 -12 14 8 21 -1 25
-35 16 -24 -8 -28 -7 -19 4 9 10 8 15 -5 20 -22 9 -26 8 -18 -5 4 -7 2 -10 -5
-8 -7 3 -12 8 -11 13 2 11 -20 26 -39 26 -9 0 -10 -4 -4 -12 11 -14 15 -93 7
-120 -11 -35 -88 -64 -136 -51 -23 6 -23 23 0 24 11 0 7 4 -10 11 -45 16 -33
23 39 23 44 0 68 4 71 13 2 7 -5 12 -18 12 -12 0 -18 -4 -15 -10 4 -6 -5 -10
-19 -10 -14 0 -26 5 -26 10 0 6 5 10 11 10 5 0 8 4 5 9 -4 5 0 12 6 14 7 3 2
6 -12 6 -36 2 -57 16 -35 25 9 3 21 3 27 0 13 -9 80 5 73 15 -2 5 -19 11 -37
14 -100 15 -133 37 -46 30 38 -3 73 -1 84 5 15 9 6 11 -43 11 -69 -1 -106 8
-98 22 4 5 17 9 31 9 13 0 23 5 21 12 -2 13 4 15 62 17 31 1 40 5 45 24 5 18
8 20 16 7 8 -13 10 -13 10 2 0 23 36 32 70 18 16 -7 47 -10 69 -8 33 3 38 1
28 -10 -14 -17 15 -42 49 -42 12 0 24 -7 28 -15 3 -8 14 -15 24 -15 10 0 23
-5 30 -12 9 -9 12 178 12 845 0 554 -3 857 -10 857 -12 0 -19 -29 -23 -106 -2
-33 -7 -65 -11 -72 -8 -13 -23 -97 -32 -177 -8 -69 -8 -69 -17 -76 -4 -3 -9
-21 -11 -41 -2 -19 -6 -39 -9 -44 -3 -5 -8 -30 -12 -54 -3 -25 -12 -85 -21
-135 -13 -84 -23 -161 -27 -211 -1 -11 -7 -27 -13 -35 -7 -8 -15 -30 -19 -49
-4 -19 -16 -46 -26 -59 -11 -13 -19 -29 -19 -36 0 -7 -7 -15 -15 -19 -12 -4
-15 3 -15 29 0 18 5 37 10 40 6 4 10 28 10 53 0 81 4 112 17 108 14 -6 36 45
31 76 -2 12 -9 22 -16 21 -6 -2 -14 8 -18 22 -3 14 -10 25 -16 25 -5 0 -6 -5
-3 -10 4 -6 2 -52 -5 -103 -17 -138 -19 -152 -26 -171 -6 -16 -8 -16 -25 0
-18 16 -19 16 -19 1 0 -20 -15 -22 -26 -5 -8 12 -7 156 1 201 6 32 13 96 25
227 6 63 12 133 15 155 2 22 9 96 15 165 5 69 14 168 20 220 11 111 47 486 58
610 15 171 -18 574 -49 605 -10 9 -6 -22 7 -64 17 -52 25 -334 14 -471 -26
-325 -30 -351 -56 -397 -19 -35 -22 -48 -13 -59 9 -11 7 -14 -13 -14 -21 0
-25 -4 -20 -25 2 -14 8 -25 13 -25 5 0 9 -9 9 -20 0 -11 6 -23 14 -26 13 -5
11 -49 -4 -69 -9 -11 -25 -95 -22 -109 2 -4 -1 -13 -6 -20 -5 -6 -13 -47 -17
-91 -4 -44 -13 -98 -20 -120 -7 -22 -16 -68 -20 -103 -4 -34 -11 -65 -16 -68
-15 -9 -10 -54 5 -54 16 0 61 172 52 196 -3 7 -1 16 4 19 13 8 13 9 -5 -230
-15 -206 -30 -309 -45 -300 -4 3 -13 -2 -20 -10 -7 -8 -9 -15 -4 -15 5 0 0 -7
-10 -15 -16 -12 -17 -17 -5 -31 11 -14 11 -18 -4 -29 -9 -7 -17 -21 -17 -32 0
-11 -9 -32 -20 -46 -24 -30 -25 -41 -5 -57 10 -8 13 -24 10 -51 -3 -22 -1 -49
5 -59 6 -11 7 -20 2 -20 -17 0 -33 -69 -27 -118 3 -28 1 -53 -4 -56 -15 -10
-1 -45 16 -39 10 4 14 18 11 52 -2 38 0 46 14 43 9 -1 19 5 21 15 3 10 5 0 6
-23 0 -22 -1 -43 -4 -46 -4 -3 -8 -39 -11 -79 -6 -96 -6 -101 -2 -119 2 -8 -3
-14 -9 -13 -7 2 -13 -3 -13 -11 0 -9 -7 -12 -20 -9 -23 6 -50 -13 -50 -35 0
-9 10 -26 22 -39 17 -18 18 -23 6 -23 -10 0 -18 -13 -22 -36 -6 -30 -3 -38 18
-55 14 -11 26 -27 26 -35 0 -8 3 -14 8 -14 7 0 -9 -239 -23 -335 -9 -60 -37
-95 -78 -95 -25 0 -28 2 -17 15 10 12 10 15 0 15 -8 0 -11 9 -8 25 3 14 1 25
-3 25 -5 0 -9 -6 -9 -12 0 -9 -4 -8 -10 2 -8 12 -10 12 -10 -5 -3 -73 -20
-144 -20 -82 0 14 -5 38 -11 54 l-11 28 -15 -22 c-17 -26 -58 -31 -66 -8 -7
16 8 29 23 20 11 -7 13 6 4 29 -3 9 -13 16 -21 16 -9 0 -13 6 -9 15 3 8 0 14
-6 12 -6 -1 -13 4 -15 11 -3 6 2 12 11 12 9 0 16 5 16 11 0 6 -9 8 -20 4 -13
-4 -22 -1 -26 9 -3 9 -10 16 -16 16 -5 0 -6 -6 -2 -12 5 -10 4 -10 -6 -1 -14
13 -4 37 12 27 7 -5 9 0 6 14 -4 15 -2 22 9 22 8 0 11 -5 7 -12 -4 -7 -3 -8 4
-4 7 4 12 17 12 29 0 12 9 33 19 47 l19 25 6 -25 c3 -14 6 -34 5 -45 0 -11 4
-33 9 -50 9 -27 10 -24 11 31 1 68 19 88 51 59 9 -8 23 -15 31 -15 14 0 39 63
39 99 0 11 6 22 13 24 6 3 2 6 -11 6 -19 1 -21 4 -12 20 5 11 6 22 2 25 -5 3
-15 -12 -22 -33 -8 -24 -22 -44 -39 -52 -21 -10 -23 -13 -8 -16 9 -3 17 -8 17
-13 0 -10 -39 -20 -44 -12 -2 4 2 40 9 80 6 39 10 72 7 72 -4 0 -1 5 6 12 7 7
12 31 12 55 0 24 4 43 10 43 5 0 12 17 16 38 4 20 13 55 22 77 8 22 16 62 19
89 2 27 10 85 18 130 11 61 11 82 2 88 -8 5 -6 9 6 14 11 4 17 16 16 38 -1 24
-3 26 -6 8 -4 -23 -5 -23 -31 -6 -24 16 -62 52 -62 60 0 2 9 19 20 39 11 19
29 52 41 72 12 21 34 53 50 72 16 20 29 39 29 43 0 5 9 27 20 51 23 51 33 91
31 135 -1 18 6 40 14 48 14 14 20 40 16 71 -1 6 3 14 9 18 16 10 12 45 -5 45
-25 0 -30 -4 -28 -22 2 -10 -1 -18 -6 -18 -11 0 -21 25 -21 51 0 10 -5 19 -11
19 -6 0 -10 -12 -8 -27 2 -32 -21 -95 -28 -75 -3 6 -9 12 -14 12 -6 0 -8 -4
-4 -9 3 -5 1 -12 -5 -16 -10 -6 -11 -1 -15 75 -2 25 -3 55 -4 68 -1 15 -5 21
-13 16 -10 -6 -10 -4 0 7 6 7 12 33 12 57 0 43 0 43 22 28 13 -9 28 -33 34
-54 11 -35 12 -32 12 48 0 82 11 167 26 202 5 11 1 21 -13 30 -12 7 -21 23
-21 35 0 12 -4 24 -9 28 -19 11 -30 -32 -24 -90 5 -43 3 -56 -5 -51 -8 5 -12
0 -12 -12 0 -23 -23 -45 -35 -34 -5 4 -5 -2 -1 -12 4 -12 2 -23 -6 -28 -10 -6
-10 -10 2 -18 12 -8 11 -10 -6 -10 -15 0 -21 6 -20 18 0 9 -5 16 -12 14 -9 -2
-12 4 -7 17 4 13 0 23 -12 30 -12 7 -14 13 -7 18 13 9 27 74 26 120 0 24 3 30
14 26 10 -4 14 2 14 21 0 14 -4 26 -10 26 -5 0 -10 9 -10 21 0 26 21 20 36
-10 11 -21 12 -22 17 -2 3 14 -1 22 -14 26 -10 4 -19 15 -19 25 0 10 -4 22
-10 25 -14 9 -13 78 2 93 9 9 9 12 -2 12 -7 0 -10 3 -6 8 4 4 13 7 19 7 5 0
12 6 15 14 3 9 0 11 -8 6 -8 -5 -11 -3 -8 6 3 8 11 13 18 11 8 -2 10 3 6 14
-4 9 0 27 8 39 8 13 13 25 10 28 -3 3 -7 33 -9 67 -3 34 -7 72 -10 84 -6 19
-5 20 6 2 9 -15 13 -16 20 -5 6 9 9 0 10 -28 1 -24 2 -49 3 -55 1 -16 36 -24
36 -9 0 6 -4 11 -10 11 -5 0 -10 5 -10 10 0 6 6 10 14 10 10 0 12 13 8 53 -2
28 -9 58 -14 64 -6 7 -7 32 -4 58 6 37 4 45 -8 45 -10 0 -16 -9 -16 -22 0 -13
-5 -30 -11 -38 -8 -11 -9 -7 -4 17 4 18 2 34 -4 38 -6 3 -11 1 -11 -6 0 -8 -4
-8 -15 1 -19 16 -19 34 -1 49 21 17 25 60 10 89 -16 32 -12 37 15 22 16 -8 21
-8 21 2 0 10 3 9 9 -1 8 -12 12 -12 25 -2 9 8 16 21 16 31 0 19 -37 66 -46 58
-9 -9 -50 35 -59 62 -5 14 -8 36 -6 49 4 33 -16 18 -28 -22 -8 -24 -9 -10 -5
53 3 47 7 86 8 87 1 1 17 4 35 5 29 2 32 5 29 30 -6 39 14 41 32 4 8 -17 22
-32 30 -34 23 -4 21 125 -2 158 -10 13 -18 30 -18 38 0 8 -5 10 -12 6 -10 -6
-10 -4 0 7 6 7 12 21 12 31 0 24 21 23 27 -2 11 -41 19 -9 12 48 -4 41 -13 66
-28 81 -13 13 -21 16 -22 9 0 -7 -4 -3 -10 10 -5 13 -13 20 -19 17 -5 -3 -10
3 -10 14 0 32 -11 55 -20 40 -5 -8 -12 4 -18 32 -5 24 -10 36 -11 27 -1 -20
-12 -23 -27 -8 -7 7 -7 32 0 75 9 64 9 65 -20 90 -16 15 -37 31 -48 37 -17 9
-18 7 -12 -23 3 -19 8 -50 11 -69 3 -19 12 -48 20 -64 23 -44 19 -83 -9 -101
-26 -18 -40 -52 -23 -58 8 -2 7 -6 -1 -11 -7 -4 -14 3 -17 21 -11 50 -25 75
-39 70 -8 -3 -24 5 -37 19 -12 13 -27 24 -31 24 -17 0 -39 28 -28 35 8 5 7 12
-2 22 -11 14 -14 12 -18 -13 -5 -27 -9 -29 -48 -29 -50 0 -58 16 -49 96 4 29
1 60 -5 74 -13 29 -54 59 -68 50 -6 -3 -7 1 -4 9 4 10 1 16 -9 16 -8 0 -17 7
-21 15 -8 21 -38 19 -64 -5 -12 -11 -27 -20 -35 -20 -23 0 -78 -31 -72 -41 15
-23 -13 -6 -37 23 l-27 33 5 -45 c7 -68 6 -80 -7 -96 -15 -18 -43 -18 -36 0
11 28 -19 51 -65 51 -36 0 -43 3 -43 20 -1 11 -5 26 -9 34 -5 8 -3 17 5 22 10
6 8 9 -8 9 -13 0 -23 -5 -23 -11 0 -6 -6 -9 -14 -6 -8 3 -16 2 -18 -3 -2 -5
-9 -6 -17 -1 -23 15 -2 31 42 31 33 1 38 3 25 11 -9 5 -31 7 -48 4 -39 -7 -39
6 0 23 29 13 41 32 20 32 -5 0 -10 -5 -10 -11 0 -20 -20 2 -21 24 -1 20 -2 20
-6 2 -3 -11 -14 -26 -24 -33 -11 -7 -19 -22 -19 -33 0 -10 -4 -19 -9 -19 -13
0 -69 -61 -87 -94 -18 -36 -18 -42 1 -26 29 24 12 -27 -23 -72 -7 -9 -17 -38
-21 -65 -6 -37 -10 -43 -15 -28 -5 11 -15 35 -24 53 -15 30 -17 31 -20 12 -2
-12 -11 -24 -21 -27 -10 -3 -25 -26 -36 -59 -10 -30 -23 -58 -29 -61 -6 -4 -7
1 -2 13 12 31 -8 4 -43 -58 -23 -41 -28 -58 -19 -61 9 -4 7 -6 -3 -6 -9 -1
-19 -11 -22 -23 -6 -20 -7 -21 -24 -6 -15 13 -147 48 -190 51 -7 0 -10 4 -7 9
3 5 9 6 14 3 5 -3 12 0 16 6 9 15 -11 26 -44 24 -70 -5 -65 0 -58 -57 4 -29
12 -58 18 -65 6 -8 7 -13 1 -13 -17 0 -32 -189 -43 -530 -6 -179 -12 -354 -13
-390 l-3 -65 -82 -5 c-97 -6 -86 -26 -102 195 -6 83 -14 157 -17 165 -3 8 -7
153 -10 321 l-5 307 26 0 c14 0 24 -4 21 -8 -3 -4 8 -26 24 -48 29 -38 31 -40
81 -37 62 4 81 22 47 47 -12 9 -34 26 -49 38 -19 14 -44 21 -87 23 -47 1 -61
5 -61 18 0 19 -55 72 -99 94 -19 9 -52 33 -73 53 -29 27 -115 79 -134 82 0 0
1 -20 2 -45 3 -52 11 -68 26 -59 7 5 9 0 6 -14 -4 -12 -3 -20 1 -18 7 4 34
-21 38 -34 13 -49 23 -270 12 -270 -4 0 -9 28 -12 63 -8 80 -16 137 -23 161
-4 12 -2 16 5 12 7 -5 7 2 0 24 -13 35 -24 41 -16 8 5 -18 -2 -14 -29 17 l-36
40 8 -30 c4 -16 9 -34 13 -40 3 -5 6 -30 7 -55 1 -25 11 -81 23 -125 12 -44
28 -127 36 -184 14 -94 13 -106 -1 -138 -9 -18 -20 -48 -24 -66 -7 -29 -8 -28
-10 18 -3 99 -19 167 -21 94 -3 -70 -29 118 -30 216 -1 79 -5 107 -20 133 -10
18 -14 30 -9 27 11 -7 -25 63 -41 80 -12 12 -12 55 0 55 6 0 3 16 -5 35 -12
30 -12 38 0 58 17 27 29 87 17 87 -5 0 -11 8 -15 18 -37 104 -65 210 -67 252
0 19 -5 46 -10 60 -5 15 -6 -19 -2 -85 5 -104 29 -198 56 -216 4 -3 7 -30 5
-60 -3 -54 -3 -54 -16 -24 -7 17 -15 36 -18 44 -3 11 -7 10 -18 -5 -12 -16
-15 -9 -21 61 -9 118 -15 123 -11 11 2 -66 0 -93 -6 -82 -5 10 -12 65 -14 123
-2 58 -6 109 -9 113 -3 5 0 71 6 147 12 159 13 271 4 352 -8 68 -25 104 -25
54 0 -18 -3 -33 -6 -33 -12 0 -34 29 -34 45 0 9 -3 14 -8 11 -4 -2 -19 23 -32
57 -20 50 -46 83 -137 177 -62 63 -113 116 -113 117 0 1 14 -3 30 -9 17 -5 42
-25 56 -43 14 -18 33 -36 42 -40 23 -9 -30 47 -93 98 -39 31 -44 39 -25 34
l25 -6 -24 20 c-19 15 -21 23 -13 31 9 9 19 8 43 -6 34 -20 55 -12 24 10 -40
28 -74 66 -69 78 8 21 -69 50 -110 42 l-36 -7 0 121 c0 73 -4 120 -10 120 -6
0 -10 -43 -10 -110 l0 -110 -27 -11 c-16 -6 -50 -12 -78 -15 -79 -7 -85 -8
-85 -17 0 -5 -12 -7 -27 -3 -16 3 -22 3 -15 0 6 -3 12 -10 12 -15 0 -5 -6 -9
-12 -9 -7 0 -26 -19 -43 -41 l-30 -41 -6 164 c-3 89 -7 173 -8 186 l-1 22
-369 0 -369 0 5 -237z m1183 -377 c0 -20 40 -86 52 -86 5 0 29 -13 53 -30 24
-16 48 -30 54 -30 18 0 12 -17 -11 -32 -29 -18 -68 -29 -68 -18 0 4 -17 4 -37
-1 -51 -12 -50 -12 -73 11 -22 22 -19 72 6 101 8 9 11 18 8 22 -4 4 -8 22 -10
42 -2 25 2 35 12 35 8 0 14 -6 14 -14z m80 -267 c0 -45 20 -63 89 -79 30 -8
37 -5 62 21 24 26 34 30 71 27 50 -4 65 -25 75 -107 6 -49 -5 -138 -14 -113
-6 17 -23 5 -23 -17 0 -10 -7 -32 -15 -47 l-15 -29 0 53 c0 28 4 52 8 52 4 0
8 9 8 19 0 23 -60 56 -120 67 -37 6 -38 6 -31 -17 5 -13 8 -29 8 -36 0 -7 3
-10 7 -8 4 3 15 -4 25 -15 14 -16 16 -23 7 -32 -13 -13 -16 -58 -4 -58 4 0 14
6 20 12 10 10 18 6 37 -17 28 -34 31 -71 11 -120 -20 -47 -49 -60 -97 -46 -22
7 -39 15 -39 19 0 4 14 19 32 33 28 23 30 29 19 43 -7 9 -22 16 -33 16 -16 0
-18 3 -9 14 9 10 8 15 -4 20 -24 9 -17 26 15 37 17 6 30 17 30 25 0 11 -5 11
-25 2 -31 -14 -40 -6 -25 22 6 12 9 24 6 28 -3 3 -6 1 -6 -5 0 -14 -36 -5 -50
12 -6 7 -13 25 -16 40 -3 15 -12 46 -20 68 -32 88 -36 108 -23 123 17 21 39
17 39 -7z m-472 -334 c7 -42 21 -93 32 -115 23 -45 28 -107 7 -79 -22 29 -35
12 -26 -39 5 -26 11 -69 15 -96 3 -30 9 -44 13 -37 6 9 10 6 14 -9 3 -12 10
-19 16 -16 5 4 12 -16 16 -49 11 -86 30 -70 25 22 -1 27 2 31 18 26 19 -5 36
-49 23 -58 -13 -8 -11 -152 3 -225 17 -86 44 -201 60 -255 4 -11 -5 3 -18 30
-14 28 -25 58 -25 67 -2 38 -45 188 -51 177 -8 -12 -10 -10 -36 39 -21 40 -18
2 4 -47 10 -22 22 -38 26 -33 4 4 6 3 5 -3 -2 -5 2 -19 8 -30 12 -23 27 -85
20 -85 -3 0 -11 17 -18 38 -12 37 -49 84 -49 61 0 -11 -15 15 -73 126 -21 38
-21 38 -27 15 -4 -14 -3 -36 1 -50 19 -64 52 -157 60 -172 5 -10 9 -23 9 -28
0 -6 9 -31 21 -56 33 -74 67 -279 45 -271 -6 3 -10 10 -8 17 5 21 -21 132 -28
120 -9 -14 -30 58 -36 122 -2 28 -15 74 -29 103 -13 29 -36 97 -50 151 -14 55
-33 120 -42 147 -14 39 -15 53 -5 80 7 18 12 39 12 45 0 6 9 26 21 44 19 31
20 31 18 8 -3 -31 9 -70 22 -70 13 0 11 168 -2 210 -12 37 -19 250 -9 250 4 0
12 -34 18 -75z m2614 -510 c3 3 4 -6 3 -20 -2 -14 0 -23 5 -20 4 3 13 -1 19
-9 9 -11 17 -11 36 -2 21 9 22 12 7 18 -15 6 -15 7 1 7 10 1 15 6 12 11 -3 6
-2 10 4 10 6 0 8 7 4 16 -3 9 0 20 8 25 10 6 22 -1 41 -24 16 -18 28 -37 28
-44 0 -6 10 -15 23 -19 28 -9 40 -26 24 -36 -9 -6 -9 -8 0 -8 6 0 18 7 27 15
20 21 23 19 47 -17 20 -32 21 -32 16 -6 -3 19 0 25 10 21 7 -3 13 -9 13 -14 0
-5 14 -6 31 -2 33 6 87 49 76 60 -4 3 -16 -2 -27 -12 -29 -26 -25 -3 5 25 21
19 25 21 25 7 0 -9 5 -17 10 -17 7 0 7 -6 0 -20 -7 -12 -7 -20 -1 -20 5 0 13
10 16 21 6 17 9 19 16 8 4 -8 6 -23 3 -35 -3 -11 -9 -54 -14 -95 -9 -84 -12
-99 -23 -116 -11 -18 -25 -16 -30 5 -3 12 -6 8 -11 -13 -4 -16 -15 -64 -26
-105 -17 -70 -31 -177 -35 -280 -2 -59 -16 -91 -62 -139 -35 -38 -102 -66
-104 -45 0 5 -3 20 -5 34 -2 14 -5 34 -5 45 0 11 -3 15 -7 10 -9 -13 -32 -18
-32 -7 0 4 6 17 14 28 8 11 23 40 32 63 13 34 14 45 4 51 -9 5 -9 13 -2 26 7
14 6 25 -4 38 -18 25 -29 14 -14 -14 6 -12 9 -24 6 -27 -3 -3 -34 3 -68 14
-35 12 -89 26 -120 33 -49 10 -57 14 -55 32 3 32 -27 46 -60 26 -19 -11 -34
-13 -45 -7 -12 7 -17 3 -22 -17 -4 -14 -4 -34 -1 -44 3 -11 0 -20 -10 -24 -8
-3 -15 -16 -15 -28 0 -46 -43 -66 -54 -24 -3 13 -16 26 -28 29 -16 5 -19 9
-11 19 10 13 13 31 13 74 0 12 12 29 26 38 13 9 22 21 19 26 -4 6 2 10 12 10
15 0 59 53 52 62 -7 10 24 47 34 42 7 -4 9 -3 4 1 -4 5 0 19 8 31 10 15 11 24
3 26 -7 3 -5 10 6 20 22 22 20 50 -5 83 -17 20 -19 29 -9 35 7 5 9 16 5 29 -5
17 3 33 39 71 25 27 46 54 46 60 0 5 10 20 22 32 l22 22 11 -27 c6 -15 14 -25
17 -22z m-2111 -228 c0 -18 3 -26 6 -19 2 6 9 12 14 12 6 0 7 -5 3 -12 -4 -7
-3 -8 4 -4 7 4 12 16 12 27 0 22 8 24 30 6 39 -31 64 -97 38 -97 -8 0 -9 -3
-3 -8 17 -12 31 -54 34 -102 2 -25 5 -48 8 -52 2 -5 -9 -8 -25 -8 -24 0 -34 9
-62 53 -42 67 -97 259 -69 242 5 -4 9 -21 10 -38z m2532 -1041 c-3 -4 -5 -37
-4 -72 1 -49 -2 -66 -14 -70 -8 -4 -15 -11 -15 -17 0 -22 -45 -107 -55 -103
-15 4 -24 76 -15 118 4 20 5 57 3 81 -6 46 16 97 42 97 7 0 19 7 26 16 12 15
15 14 25 -12 7 -16 10 -33 7 -38z m-1309 -32 c166 2 310 7 321 11 34 10 42
-47 40 -285 -3 -299 4 -371 51 -510 21 -63 42 -117 45 -120 4 -3 14 -31 22
-63 14 -51 14 -64 1 -99 -8 -22 -14 -56 -14 -74 0 -19 -5 -34 -11 -34 -7 0 -9
9 -6 21 6 22 4 22 -85 15 -50 -3 -112 -6 -137 -6 -30 0 -41 -3 -32 -9 7 -5 29
-6 48 -4 24 3 33 1 29 -6 -4 -6 -12 -9 -17 -6 -5 4 -9 1 -9 -6 0 -8 14 -10 47
-6 74 8 27 -9 -62 -22 -88 -14 -135 -29 -135 -43 0 -5 7 -20 16 -33 15 -23 15
-25 -2 -27 -39 -3 -50 -2 -89 7 l-40 9 40 6 40 7 -38 2 c-32 1 -39 -3 -48 -26
-10 -26 -12 -27 -19 -8 -5 11 -9 14 -9 7 -1 -9 -11 -12 -28 -10 -16 2 -26 8
-23 13 2 6 11 9 20 8 8 -1 10 0 3 3 -7 3 -10 11 -7 17 2 7 -6 13 -22 13 -15 1
-24 -2 -21 -10 3 -6 -1 -17 -9 -23 -17 -17 -28 0 -20 33 5 19 3 24 -14 24 -12
0 -20 -7 -21 -17 0 -16 -1 -16 -11 -2 -9 13 -16 14 -42 5 -17 -6 -34 -15 -38
-21 -5 -6 -11 -6 -18 1 -5 5 -26 8 -45 6 -26 -3 -35 -9 -35 -23 0 -13 5 -17
18 -12 15 6 15 5 4 -10 -8 -9 -11 -21 -8 -26 4 -5 1 -13 -5 -17 -6 -3 -15 -1
-19 6 -5 8 -9 7 -13 -4 -8 -20 -47 -21 -73 -2 -15 12 -17 17 -6 27 19 20 14
41 -15 66 -20 18 -29 20 -40 12 -7 -6 -13 -17 -13 -25 0 -10 -6 -11 -30 -3
-34 12 -35 17 -19 91 11 53 57 148 72 148 4 0 7 9 7 21 0 13 5 19 13 16 21 -8
41 31 26 49 -8 10 -13 63 -15 155 l-3 139 34 0 c43 0 65 -9 65 -26 0 -8 5 -14
10 -14 6 0 10 25 10 55 0 55 5 63 42 69 30 4 34 15 27 73 -4 32 -12 76 -18 98
-5 22 -12 92 -15 155 -2 63 -8 136 -11 161 l-7 46 143 6 c79 4 219 7 312 7
111 0 167 4 167 11 0 5 -4 8 -8 5 -5 -3 -132 -6 -283 -6 -359 -1 -329 -3 -323
14 4 12 12 13 32 5 15 -6 141 -8 326 -5z m-1964 -771 c0 -49 5 -171 12 -273 6
-102 12 -203 11 -225 0 -22 2 -34 4 -27 3 8 13 -4 24 -28 23 -50 22 -45 4 -63
-11 -12 -12 -22 -4 -52 11 -39 -5 -140 -21 -130 -13 8 -43 -33 -36 -51 4 -11
-1 -22 -14 -31 -11 -8 -18 -19 -15 -24 4 -5 1 -9 -4 -9 -6 0 -11 6 -11 13 0 9
-2 9 -8 -1 -7 -9 -17 -6 -46 13 -36 25 -39 25 -52 8 -13 -17 -15 -17 -28 1 -9
11 -13 33 -11 55 2 20 4 46 4 58 1 16 9 25 26 29 16 4 25 13 25 27 0 19 -1 19
-18 4 -10 -10 -24 -17 -30 -17 -7 0 -12 -5 -12 -11 0 -5 -4 -7 -10 -4 -5 3
-10 16 -10 28 0 18 2 19 10 7 8 -12 10 -9 10 12 0 14 -3 34 -7 43 -5 14 -8 13
-17 -10 -12 -28 -6 -124 9 -157 5 -14 2 -18 -11 -18 -17 0 -19 9 -19 88 1 102
20 178 42 161 10 -9 13 -4 13 27 0 35 1 37 15 18 9 -12 14 -14 15 -6 0 10 8
12 30 7 40 -9 52 0 38 30 -11 25 -44 42 -56 30 -3 -3 -1 -15 6 -25 15 -25 2
-26 -19 -2 -16 19 -19 26 -19 44 0 9 -3 9 -12 0 -7 -7 -11 -33 -11 -60 l2 -47
-11 50 c-12 59 -12 83 -3 132 5 27 9 33 16 22 6 -9 9 6 10 46 1 33 4 48 6 33
2 -16 8 -28 13 -28 4 0 7 51 5 114 -2 90 0 116 11 120 8 3 14 19 14 38 0 36
44 106 75 118 11 5 30 9 43 9 21 1 22 -2 22 -86z m3060 -194 c0 -5 5 -7 10 -4
21 13 8 -16 -20 -45 -16 -17 -30 -35 -30 -41 0 -5 -6 -9 -12 -7 -7 1 -30 -6
-51 -16 -33 -17 -39 -17 -60 -3 -19 12 -22 22 -19 51 6 47 21 57 86 57 31 0
56 5 56 10 0 5 9 9 20 9 11 0 20 -5 20 -11z m-64 -335 c-6 -17 21 -19 57 -5
31 12 35 5 33 -73 -1 -66 7 -61 -108 -72 -50 -5 -68 -4 -68 5 0 9 13 10 45 5
30 -4 45 -3 45 5 0 6 -10 11 -22 11 -13 1 -34 10 -47 21 -21 17 -22 22 -10 30
17 11 21 11 38 0 8 -5 24 -6 37 -1 15 6 24 5 26 -2 3 -7 7 -5 11 4 5 14 -4 18
-51 24 -62 7 -105 23 -64 24 12 0 22 4 22 9 0 5 9 7 20 4 12 -3 20 0 20 6 0 7
-4 9 -10 6 -5 -3 -10 -2 -10 4 0 11 22 20 33 14 5 -3 6 -11 3 -19z m-1317
-186 c1 6 8 12 17 12 10 0 14 -6 11 -15 -8 -19 9 -28 63 -33 24 -2 51 -7 60
-11 22 -12 40 -2 40 21 0 14 5 18 16 14 9 -3 20 -6 25 -6 5 0 9 -4 9 -10 0 -5
-7 -10 -15 -10 -8 0 -15 -4 -15 -10 0 -12 20 -12 76 -1 37 7 74 -3 74 -21 0
-3 -43 -6 -95 -7 -52 -1 -101 -2 -107 -3 -7 -1 -51 2 -98 6 -78 6 -83 5 -60
-8 27 -17 32 -16 -115 -21 -22 -1 -48 -5 -57 -9 -12 -5 -18 -4 -18 4 0 9 -6 8
-19 -4 -12 -11 -21 -14 -26 -7 -8 14 -26 14 -22 0 1 -6 -4 -14 -11 -16 -10 -4
-13 2 -10 18 4 32 68 67 109 61 21 -3 30 -1 25 6 -3 6 -2 13 4 17 5 3 10 1 10
-6 0 -10 3 -10 12 -1 9 9 9 15 0 24 -7 7 -12 16 -12 22 0 5 6 2 13 -7 16 -22
97 -13 98 12 0 12 2 11 9 -4 5 -11 9 -14 9 -7z m321 -138 c12 -8 12 -10 -5
-10 -18 -1 -19 -1 -3 -11 12 -7 24 -6 39 1 22 12 135 4 144 -10 3 -4 -1 -8 -8
-7 -36 1 -57 -4 -52 -13 3 -5 1 -10 -4 -10 -6 0 -11 5 -11 10 0 15 -26 12 -40
-5 -11 -13 -8 -15 21 -16 34 -1 34 -1 7 -9 -15 -4 -65 -11 -110 -15 -46 -4
-101 -9 -123 -11 -22 -3 -61 -7 -88 -9 -26 -1 -53 -8 -61 -14 -7 -6 -16 -8
-19 -5 -9 9 -78 -6 -72 -15 8 -14 -25 -22 -46 -10 -12 6 -43 7 -79 3 -52 -6
-61 -4 -67 12 -4 10 -2 19 5 22 7 2 12 10 12 18 0 9 4 12 10 9 5 -3 21 6 35
21 23 25 27 26 67 16 83 -21 96 -21 169 -5 105 23 161 21 187 -5 25 -25 30
-26 52 -12 13 9 13 10 0 11 -8 1 -21 1 -27 0 -20 -3 -15 7 8 20 15 8 19 8 15
0 -5 -7 2 -11 18 -11 18 0 24 4 20 15 -4 8 -12 15 -20 15 -8 0 -14 9 -14 20 0
22 16 26 40 10z m-1142 -122 c0 -7 5 -51 11 -97 10 -83 8 -107 -9 -96 -14 9
-50 -14 -50 -30 0 -8 5 -15 10 -15 6 0 10 6 10 14 0 7 11 16 25 18 27 6 23 16
46 -122 11 -73 19 -342 12 -438 -5 -61 -6 -63 -29 -58 -13 4 -41 0 -64 -8 -22
-7 -40 -10 -40 -5 0 5 -10 9 -22 8 -21 0 -22 -1 -3 -8 18 -7 18 -9 -6 -25 -29
-18 -63 -12 -55 11 3 8 6 24 6 34 0 11 4 18 9 15 5 -4 20 -2 33 3 23 8 22 9
-14 30 -33 20 -37 28 -47 85 -6 34 -11 70 -11 79 0 9 -4 17 -10 17 -5 0 -10
11 -10 24 0 13 -7 29 -15 36 -10 9 -15 32 -15 76 0 58 -2 64 -21 64 -19 0 -20
4 -15 34 4 23 0 48 -14 82 -15 34 -19 59 -15 82 5 26 2 37 -11 46 -37 28 25
76 98 76 18 0 50 5 71 11 52 14 81 -4 85 -55 2 -34 19 -82 27 -74 1 1 -1 27
-4 56 -7 48 0 68 13 40 3 -7 4 13 3 45 -3 38 0 57 8 57 6 0 12 -6 13 -12z
m606 -224 c3 -9 6 -23 6 -32 0 -13 -3 -12 -14 4 -12 15 -17 17 -27 7 -11 -11
-10 -13 4 -13 9 0 17 -5 17 -11 0 -6 -6 -9 -14 -6 -7 3 -19 0 -25 -6 -9 -9
-14 -8 -22 3 -9 13 -10 12 -6 -2 6 -17 -19 -46 -30 -34 -3 3 -1 6 6 6 7 0 10
4 7 9 -3 5 -27 9 -54 9 -68 0 -82 4 -42 12 35 7 35 7 -11 9 -33 1 -54 -5 -73
-20 -32 -25 -34 -14 -3 25 16 19 34 29 58 32 18 2 68 7 109 12 109 13 107 13
114 -4z m-1101 -279 c23 -85 27 -118 21 -145 -8 -32 -12 -35 -44 -32 -77 5
-101 15 -153 63 -28 26 -48 51 -45 55 4 4 13 2 21 -4 7 -6 18 -7 26 -3 11 7
10 11 -5 19 -13 7 -6 9 28 5 27 -3 48 -1 52 6 13 21 -72 26 -104 6 -10 -6 -12
-4 -7 8 3 9 1 18 -6 21 -9 3 -8 8 3 15 13 9 13 11 -1 11 -9 0 -19 8 -23 18 -3
9 -9 22 -12 29 -3 7 3 10 18 7 13 -2 17 -2 11 2 -26 12 -12 19 30 16 23 -2 58
1 77 6 78 21 81 18 113 -103z m1707 41 c0 -12 7 -30 15 -40 8 -10 12 -22 10
-26 -2 -4 12 -14 31 -23 31 -15 33 -19 24 -38 -14 -26 -6 -36 15 -19 12 10 19
10 27 2 9 -9 8 -12 -3 -12 -9 0 -16 -7 -16 -15 0 -18 69 -14 93 6 16 13 16 12
0 -18 l-16 -33 -97 5 c-53 3 -101 9 -107 15 -10 10 3 15 33 11 7 -2 10 2 6 8
-4 7 3 11 16 11 26 0 15 16 -15 22 -10 1 -24 11 -30 21 -9 14 -7 21 7 32 25
18 15 46 -23 68 -38 23 -38 42 0 43 24 1 30 -3 30 -20z m1282 -255 c-11 -43
-12 -63 -3 -87 6 -18 11 -65 10 -107 -1 -53 5 -93 20 -140 25 -76 18 -107 -24
-107 -14 0 -25 -5 -25 -10 0 -6 37 -8 104 -4 l104 6 5 -48 c7 -61 6 -85 -4
-78 -4 2 -11 -1 -14 -7 -4 -5 -13 -8 -20 -5 -8 3 -15 -10 -21 -37 -14 -73 -12
-110 8 -115 10 -2 18 -8 18 -13 0 -13 -10 -10 -65 19 -39 21 -56 39 -78 80
-27 49 -47 67 -47 40 0 -6 -3 -9 -6 -6 -3 3 0 15 6 25 10 15 8 28 -8 64 -13
27 -17 48 -11 55 9 11 5 92 -5 102 -3 3 -6 -11 -6 -30 0 -31 -3 -35 -20 -31
-14 4 -19 1 -15 -8 9 -24 -12 -42 -51 -44 -21 -2 -40 -8 -42 -14 -2 -6 -9 -11
-15 -11 -8 0 -7 4 1 12 19 19 15 49 -5 41 -13 -5 -15 -2 -10 11 4 10 7 22 7
27 0 5 7 9 15 9 17 0 20 25 5 35 -6 4 -7 11 -4 17 8 13 -39 -12 -48 -26 -4 -6
-8 -21 -8 -33 0 -13 -6 -23 -14 -23 -31 0 -46 13 -46 40 0 33 -20 44 -37 21
-11 -14 -12 -14 -13 1 0 11 -5 15 -15 12 -21 -8 -19 2 15 71 17 33 30 65 30
72 0 39 92 36 123 -4 15 -18 22 -21 38 -13 10 6 19 21 19 33 0 17 -2 19 -10 7
-8 -12 -10 -12 -16 3 -3 9 -3 25 1 35 8 16 8 16 12 0 10 -41 36 -3 51 72 6 34
12 44 25 42 10 -2 17 4 17 12 0 29 23 66 42 66 10 0 18 6 18 13 0 8 6 14 13
14 11 0 10 -11 -1 -56z m-2995 -57 c3 -8 12 -14 20 -14 12 0 13 -8 8 -42 -10
-57 -11 -59 -51 -54 -23 3 -34 0 -34 -8 0 -7 -12 -18 -26 -24 -18 -9 -23 -9
-18 -1 10 17 -18 30 -35 16 -13 -10 -12 -7 1 14 18 29 15 39 -12 39 -25 0 -44
25 -22 28 108 13 147 26 122 42 -6 4 -8 14 -4 23 5 13 10 14 26 6 10 -6 22
-17 25 -25z m662 -28 c9 -11 9 -15 -1 -19 -7 -3 2 -6 21 -6 28 -1 32 -3 21
-16 -9 -11 -8 -18 9 -36 12 -13 21 -36 21 -51 0 -17 4 -27 10 -23 14 8 13 -21
-1 -48 -9 -16 -9 -22 0 -25 17 -6 13 -22 -5 -22 -13 0 -14 -3 -5 -14 12 -15 5
-46 -11 -46 -6 0 -8 -14 -5 -33 7 -47 -6 -67 -31 -44 -12 11 -21 14 -29 6 -12
-12 -63 50 -63 78 0 15 2 16 10 3 16 -25 11 61 -5 90 -14 24 -14 22 -10 -25
l5 -50 -16 35 c-17 35 -25 80 -28 155 -1 32 3 40 18 43 14 3 17 0 13 -12 -3
-8 -1 -18 5 -22 8 -5 9 3 5 25 -5 24 -4 30 6 25 6 -4 9 -4 5 1 -12 12 11 45
31 45 10 0 24 -6 30 -14z m1792 -80 c0 0 3 -21 5 -46 3 -25 10 -49 15 -54 15
-16 10 -148 -6 -170 -15 -20 -91 -39 -99 -24 -2 5 -3 3 -2 -4 3 -14 -22 -43
-30 -36 -2 3 1 29 7 57 12 59 5 81 -12 33 -6 -18 -15 -32 -21 -32 -5 0 -8 -10
-6 -22 4 -32 -47 -37 -56 -5 -3 12 -1 26 4 31 4 4 6 15 3 23 -5 12 -7 12 -14
1 -7 -10 -9 -11 -9 0 0 8 -5 10 -12 6 -8 -5 -9 -2 -4 12 5 10 11 38 13 61 5
39 4 41 -16 36 -11 -3 -18 -9 -15 -14 3 -5 -1 -9 -9 -9 -8 0 -18 -8 -23 -17
-8 -21 -8 -21 1 -52 6 -21 5 -23 -13 -19 -14 4 -23 0 -26 -11 -3 -9 -4 6 -2
33 3 30 1 44 -5 35 -7 -11 -9 -10 -9 4 0 24 -15 21 -28 -5 -9 -20 -10 -17 -6
17 6 45 17 65 63 114 35 37 41 23 11 -27 -23 -38 -26 -62 -6 -62 7 0 17 15 22
33 8 25 18 35 49 45 52 17 85 9 78 -18 -4 -14 0 -20 11 -20 9 0 16 5 16 10 0
15 26 12 43 -5 17 -16 28 -10 20 11 -3 8 0 14 6 14 17 0 13 37 -4 44 -31 11
-15 31 25 32 22 1 40 1 41 0z m-1920 -175 c0 -14 3 -35 5 -46 3 -11 7 -48 11
-81 l6 -62 -39 2 c-22 1 -44 5 -50 9 -7 4 -9 -2 -6 -20 4 -19 1 -24 -9 -21
-26 9 -21 64 15 158 20 51 36 99 36 109 1 27 30 -18 31 -48z"/>
<path d="M4210 8047 c0 -15 4 -33 10 -40 17 -21 80 -147 101 -202 25 -66 33
-161 13 -144 -11 9 -14 8 -14 -4 0 -8 6 -17 13 -20 9 -3 9 -7 1 -18 -6 -8 -14
-47 -16 -88 -3 -42 -2 -67 3 -60 7 11 9 11 9 -2 0 -8 -5 -20 -11 -26 -6 -6 -9
-28 -7 -49 3 -38 4 -39 48 -45 25 -4 95 -8 155 -10 l110 -4 2 105 c1 58 4 206
6 329 3 223 4 223 28 241 32 25 30 25 -181 44 -192 18 -251 20 -233 8 7 -4 9
-13 4 -21 -7 -10 -12 -8 -25 10 l-16 23 0 -27z"/>
<path d="M9998 599 c-11 -6 -18 -22 -18 -39 0 -23 -5 -30 -20 -30 -11 0 -20
-4 -20 -9 0 -5 9 -11 20 -14 18 -5 20 -14 20 -81 0 -100 18 -98 22 2 l3 77 43
3 42 3 0 -80 c0 -65 3 -81 15 -81 12 0 15 16 15 80 l0 80 30 0 c17 0 30 5 30
10 0 6 -13 10 -30 10 -25 0 -30 4 -30 25 0 14 6 26 13 27 6 0 18 2 24 2 21 2
15 21 -7 24 -28 5 -60 -25 -60 -55 0 -21 -4 -23 -45 -23 -32 0 -45 4 -45 14 0
21 30 48 46 42 8 -3 14 1 14 9 0 17 -36 20 -62 4z"/>
<path d="M10910 554 c0 -55 0 -55 -22 -40 -32 22 -63 20 -95 -8 -77 -67 12
-199 95 -140 20 14 22 14 22 0 0 -9 5 -16 10 -16 6 0 10 50 10 130 0 80 -4
130 -10 130 -5 0 -10 -25 -10 -56z"/>
<path d="M8130 568 c-13 -8 -29 -26 -35 -42 -8 -24 -6 -31 13 -47 13 -10 40
-21 60 -25 52 -9 72 -22 72 -45 0 -39 -81 -47 -123 -11 -13 11 -20 13 -29 4
-15 -15 47 -52 90 -52 56 0 92 26 92 67 0 27 -31 49 -89 62 -24 5 -48 14 -54
20 -16 16 3 43 36 55 22 8 33 5 58 -13 36 -27 61 -15 30 13 -25 23 -89 30
-121 14z"/>
<path d="M9733 560 c-64 -39 -64 -151 0 -190 81 -50 167 -1 167 95 0 96 -86
145 -167 95z m120 -32 c23 -28 23 -99 -2 -129 -13 -16 -29 -23 -54 -23 -44 0
-75 26 -83 70 -16 88 84 147 139 82z"/>
<path d="M8345 505 c-56 -55 -18 -155 58 -155 42 0 90 33 64 43 -10 4 -17 3
-17 -2 0 -18 -52 -22 -76 -6 -45 29 -31 45 41 45 l65 0 0 29 c0 63 -89 93
-135 46z"/>
<path d="M9202 523 c-16 -6 -42 -56 -42 -82 0 -72 80 -116 138 -75 31 21 18
36 -17 18 -41 -21 -91 2 -91 42 0 2 29 4 64 4 36 0 67 4 70 9 11 17 -15 68
-40 80 -26 11 -59 13 -82 4z"/>
<path d="M10243 518 c-27 -13 -46 -66 -37 -102 14 -56 85 -83 132 -50 30 20
18 38 -12 18 -37 -24 -96 1 -96 40 0 3 32 6 71 6 l72 0 -7 33 c-11 57 -66 82
-123 55z"/>
<path d="M10593 518 c-27 -13 -46 -66 -37 -102 14 -56 85 -83 132 -50 30 20
18 38 -12 18 -37 -24 -96 1 -96 40 0 3 32 6 71 6 l72 0 -7 33 c-11 57 -66 82
-123 55z"/>
</g>
</svg>
