<?xml version="1.0" standalone="no"?>
<!DOCTYPE svg PUBLIC "-//W3C//DTD SVG 20010904//EN"
 "http://www.w3.org/TR/2001/REC-SVG-20010904/DTD/svg10.dtd">
<svg version="1.0" xmlns="http://www.w3.org/2000/svg"
 width="1904.000000pt" height="1080.000000pt" viewBox="0 0 1904.000000 1080.000000"
 preserveAspectRatio="xMidYMid meet">
<metadata>
Created by potrace 1.15, written by Peter Selinger 2001-2017
</metadata>
<g transform="translate(0.000000,1080.000000) scale(0.100000,-0.100000)"
fill="#000000" stroke="none">
<path d="M0 8545 l0 -1695 28 -1 27 -1 -27 -9 -26 -10 -1 -132 c-1 -73 2 -127
6 -121 14 20 48 32 68 23 11 -4 14 -8 7 -8 -15 -1 -6 -21 9 -21 6 0 7 5 4 10
-3 6 0 10 7 10 8 0 9 3 3 8 -16 11 -16 30 1 36 8 3 13 2 10 -3 -3 -5 0 -13 7
-19 10 -8 13 -5 12 15 0 18 7 28 24 34 19 8 22 6 17 -6 -3 -9 -2 -13 4 -10 6
3 10 12 10 20 0 8 5 17 12 21 7 5 9 2 4 -7 -5 -10 -3 -9 6 1 10 12 37 16 111
17 97 2 97 2 75 -17 -13 -10 -24 -14 -26 -10 -2 5 -13 0 -25 -11 -12 -11 -27
-17 -35 -14 -7 2 -11 1 -8 -4 3 -5 -1 -12 -10 -15 -23 -9 -27 -8 -21 8 4 10 0
12 -16 8 -19 -5 -20 -3 -10 10 10 12 10 15 -2 15 -8 0 -15 -4 -15 -8 0 -5 -8
-6 -17 -3 -14 5 -15 4 -4 -4 8 -6 10 -15 6 -22 -5 -8 -4 -11 3 -7 14 10 43 -3
36 -15 -4 -6 -10 -5 -15 3 -7 11 -9 10 -9 -4 0 -14 -5 -17 -23 -12 -15 4 -18
3 -8 -3 22 -16 -7 -26 -79 -28 -112 -3 -120 -4 -120 -13 0 -5 8 -12 18 -14 15
-4 15 -5 0 -6 -13 -1 -16 -11 -16 -46 1 -25 3 -45 5 -45 2 0 26 11 53 25 28
14 50 21 50 16 0 -5 8 -8 17 -7 12 1 17 -5 15 -18 -3 -15 -1 -16 11 -5 13 12
11 16 -10 30 l-24 16 41 22 c33 17 58 21 138 21 74 -1 93 -3 79 -11 -11 -6
-30 -9 -43 -6 -14 2 -27 0 -30 -5 -3 -4 -2 -8 3 -7 17 3 46 -1 42 -6 -3 -2
-23 -7 -45 -10 -29 -3 -35 -2 -24 6 13 9 13 10 0 6 -8 -2 -14 -12 -13 -21 1
-12 -4 -15 -14 -12 -11 4 -13 2 -9 -9 3 -8 1 -15 -4 -15 -6 0 -10 4 -10 10 0
5 -7 6 -17 3 -10 -4 -14 -2 -9 5 3 6 1 14 -6 18 -7 4 -10 4 -6 -1 4 -4 3 -14
-3 -21 -7 -8 -6 -14 2 -20 8 -4 9 -3 5 4 -5 8 -2 10 9 6 9 -4 15 -7 13 -8 -2
-1 -12 -8 -22 -16 -11 -8 -17 -10 -13 -4 4 7 0 15 -9 18 -8 3 -12 2 -9 -4 3
-6 -3 -10 -14 -10 -12 0 -21 -4 -21 -10 0 -5 7 -7 15 -4 11 5 13 2 9 -10 -3
-9 -17 -16 -31 -16 -13 0 -22 4 -19 9 3 4 -6 6 -19 3 -20 -3 -25 0 -25 17 0
11 5 21 11 21 5 0 7 5 3 11 -4 8 -9 7 -15 -2 -5 -8 -9 -10 -9 -5 0 5 -8 2 -18
-7 -10 -10 -22 -14 -27 -10 -4 5 -5 2 -1 -5 5 -9 12 -9 27 -2 16 9 19 7 19
-10 0 -17 -4 -19 -25 -14 -19 5 -25 2 -25 -10 0 -13 11 -16 53 -16 l52 0 -45
-21 c-45 -20 -60 -34 -60 -57 0 -7 34 6 83 33 65 35 94 45 130 45 25 0 49 -5
53 -11 4 -8 9 -7 15 2 8 12 10 12 18 0 6 -9 18 -11 36 -7 17 4 24 3 20 -4 -3
-5 -13 -10 -21 -10 -8 0 -14 -5 -14 -12 0 -9 -3 -9 -12 0 -16 16 -29 15 -22
-1 3 -8 -10 -21 -33 -33 -21 -10 -44 -25 -51 -31 -7 -7 -20 -13 -27 -13 -7 0
-21 -8 -31 -17 -11 -12 -38 -19 -80 -21 -46 -3 -64 -8 -64 -18 0 -8 11 -14 28
-14 l27 -1 -27 -15 c-16 -8 -28 -21 -28 -29 0 -12 14 -8 60 15 39 20 60 26 60
18 0 -10 2 -10 8 0 6 9 37 12 115 10 l107 -3 -60 -32 c-55 -29 -75 -32 -50 -7
7 7 6 11 -4 11 -8 0 -13 -4 -10 -9 3 -4 1 -8 -5 -8 -6 0 -8 -7 -4 -16 4 -11 2
-15 -7 -12 -7 2 -14 12 -16 22 -4 28 -11 29 -32 8 -11 -11 -23 -18 -25 -15 -3
3 -3 -6 0 -19 5 -22 5 -22 -9 -4 -12 15 -17 16 -23 6 -6 -9 -4 -11 5 -5 9 6
11 4 5 -5 -6 -10 -13 -8 -28 11 -20 24 -20 24 -14 2 3 -16 1 -23 -9 -23 -8 0
-14 -5 -14 -11 0 -5 -4 -7 -10 -4 -6 4 -10 -5 -10 -20 0 -22 3 -26 18 -20 9 4
26 9 37 12 16 3 15 1 -5 -11 -14 -8 -37 -15 -52 -16 l-28 0 0 -3005 0 -3005
9515 0 9515 0 0 5120 0 5120 -9515 0 -9515 0 0 -1695z m3757 -1159 c0 -8 -5
-14 -11 -13 -6 1 -10 -4 -8 -12 1 -7 -3 -21 -10 -30 -7 -9 -1 -6 13 7 28 24
39 28 39 11 0 -6 -6 -7 -12 -2 -7 4 2 -10 20 -32 39 -47 40 -68 7 -83 -14 -6
-25 -16 -25 -22 0 -5 -7 -10 -15 -10 -8 0 -15 -5 -15 -11 0 -18 -33 -5 -36 15
-1 10 -11 28 -22 40 -11 11 -24 35 -29 51 -9 26 -7 33 13 48 26 20 46 15 37
-9 -4 -11 -9 -12 -18 -4 -13 11 -22 4 -20 -15 1 -16 24 -51 25 -38 0 6 -5 15
-10 18 -6 4 -8 11 -4 16 3 6 14 0 25 -12 15 -18 19 -19 19 -6 0 10 -5 17 -11
17 -7 0 -4 11 6 26 9 15 12 23 6 20 -6 -4 -11 0 -11 10 0 10 3 15 6 11 4 -3
13 0 21 8 18 19 20 19 20 1z m-121 -114 c32 -51 64 -115 61 -119 -27 -26 -113
-81 -118 -76 -4 5 -24 39 -45 77 -30 55 -34 70 -23 76 8 5 32 22 54 38 41 32
54 32 71 4z m12271 -5 c15 -13 36 -26 46 -30 9 -3 17 -11 17 -17 0 -9 -61
-113 -76 -129 -3 -4 -114 69 -114 75 0 14 76 124 85 124 8 0 26 -10 42 -23z
m113 -77 c0 -6 10 -15 23 -21 27 -12 65 -34 73 -42 3 -3 -4 -24 -17 -46 l-23
-41 -67 0 c-104 0 -107 15 -27 133 20 27 38 36 38 17z m-15522 -662 c9 -9 15
-10 20 -2 8 13 128 19 135 7 3 -5 -3 -14 -14 -21 -16 -10 -19 -9 -19 3 0 8 -4
15 -9 15 -5 0 -7 -9 -4 -19 4 -16 -5 -24 -44 -42 -26 -12 -48 -20 -48 -18 0 2
-11 -6 -24 -18 -17 -16 -28 -20 -36 -13 -14 12 -26 3 -19 -14 3 -8 -28 -12
-113 -14 l-118 -3 32 20 c65 41 134 72 145 65 6 -4 8 -3 5 3 -7 11 46 44 65
40 7 -2 9 -2 4 1 -4 2 -2 8 5 13 19 12 23 11 37 -3z m5484 -233 c6 -16 12 -32
13 -35 6 -24 80 -167 89 -172 6 -4 7 -8 2 -8 -6 0 -5 -5 2 -12 7 -7 12 -20 12
-31 0 -10 4 -16 9 -12 5 3 12 1 16 -5 4 -6 10 -8 15 -5 11 7 33 -22 27 -38 -2
-7 6 -18 19 -24 17 -8 24 -8 24 0 0 6 6 2 14 -8 8 -11 12 -23 10 -26 -2 -4 3
-12 11 -19 8 -7 13 -16 10 -20 -3 -5 4 -15 16 -24 14 -9 19 -21 15 -31 -4 -11
-2 -14 6 -9 8 5 9 2 5 -9 -3 -10 -2 -17 3 -17 6 0 10 -12 10 -27 0 -22 2 -25
10 -13 9 13 10 13 11 0 1 -8 1 -18 0 -22 -4 -27 37 9 77 68 12 18 -21 -46
-104 -203 -21 -39 -39 -71 -40 -70 -1 1 -22 55 -48 120 -44 112 -45 119 -30
143 18 27 30 30 37 12 4 -10 7 -10 18 0 9 9 10 15 3 20 -6 4 -14 16 -18 27 -7
19 -8 19 -20 3 -7 -10 -24 -18 -38 -18 -23 0 -29 11 -71 128 -25 70 -47 134
-49 142 -2 8 -6 17 -9 20 -9 8 -89 217 -88 232 0 13 9 -3 31 -57z m10693 -347
c21 -11 175 -137 175 -143 0 -2 -42 -1 -92 2 -81 5 -96 9 -120 31 -15 14 -25
30 -21 35 3 6 1 7 -6 3 -10 -7 -121 66 -121 79 0 10 166 3 185 -7z m255 -193
l24 -25 -35 -38 c-18 -20 -37 -41 -41 -46 -4 -5 -19 5 -33 23 -15 17 -31 29
-35 26 -11 -7 -32 30 -22 40 4 3 3 5 -3 4 -11 -3 -75 28 -75 36 0 3 44 5 98 5
92 0 100 -2 122 -25z m-3915 -105 c-8 -16 -15 -36 -15 -45 0 -8 -4 -15 -10
-15 -5 0 -10 -6 -10 -13 0 -11 -87 -237 -95 -245 -1 -2 -30 51 -64 117 -34 67
-59 121 -56 121 2 0 17 -17 33 -38 32 -45 52 -46 89 -5 14 15 23 23 19 17 -4
-8 3 -11 18 -10 17 1 21 4 15 13 -7 7 -2 20 16 39 14 15 23 29 21 31 -4 5 43
63 51 63 2 0 -3 -13 -12 -30z m-8177 -502 c12 -24 22 -49 22 -56 0 -7 -17 -35
-37 -62 l-37 -50 -28 45 c-15 25 -28 50 -28 56 0 11 71 108 80 109 3 0 15 -19
28 -42z m-91 -140 l25 -46 -43 -62 -43 -61 -33 52 -33 53 23 30 c13 17 32 43
43 58 10 15 23 26 27 25 5 -1 20 -23 34 -49z m9631 -65 c16 -21 31 -45 34 -53
6 -18 -18 -70 -33 -70 -6 0 -7 -4 -4 -10 3 -5 -3 -10 -13 -10 -28 0 -91 98
-71 111 8 5 10 9 6 9 -13 0 26 60 39 60 7 0 26 -17 42 -37z m-9563 -53 l25
-50 -36 -55 c-21 -31 -41 -54 -46 -53 -5 2 -21 24 -35 49 l-26 46 43 56 c23
31 44 57 46 57 2 0 15 -22 29 -50z m-167 -21 l26 -46 -39 -54 c-21 -30 -42
-58 -46 -63 -4 -4 -23 15 -42 44 l-35 52 45 60 c25 32 50 57 55 56 5 -2 21
-24 36 -49z m9682 -86 c0 -6 5 -13 12 -15 7 -3 -1 -22 -22 -53 l-33 -48 -23
28 c-13 16 -31 43 -40 60 -16 31 -16 32 11 75 l28 44 33 -39 c19 -22 34 -45
34 -52z m154 18 c25 -33 46 -62 46 -65 0 -9 -63 -96 -69 -96 -9 0 -76 104 -73
113 1 5 -2 6 -8 2 -5 -3 -10 -4 -10 0 0 5 63 104 67 105 1 0 22 -27 47 -59z
m-9598 -27 l27 -45 -38 -55 c-21 -30 -41 -56 -44 -59 -4 -2 -19 18 -34 44
l-27 48 41 57 c22 31 42 56 44 56 2 0 16 -21 31 -46z m-178 -126 c-23 -32 -45
-58 -50 -58 -4 0 -21 21 -37 46 l-29 45 46 65 46 64 32 -52 32 -52 -40 -58z
m9713 -74 c-14 -24 -30 -43 -36 -44 -5 0 -27 27 -48 59 -38 59 -38 60 -21 88
43 68 43 68 89 2 l43 -61 -27 -44z m-9633 67 l30 -49 -35 -53 c-20 -30 -39
-58 -43 -62 -4 -5 -22 12 -39 37 l-32 45 43 65 c24 36 44 66 45 66 1 0 15 -22
31 -49z m9549 -88 l34 -54 -29 -46 -30 -45 -31 46 c-18 25 -29 51 -25 58 4 6
3 8 -3 5 -6 -4 -13 -1 -16 6 -6 17 42 99 55 91 5 -3 25 -31 45 -61z m-9644
-59 l28 -46 -43 -64 c-24 -35 -45 -63 -48 -64 -3 0 -19 22 -36 48 l-31 48 26
30 c14 17 34 45 43 62 9 18 21 32 25 32 4 0 21 -21 36 -46z m9741 -79 l44 -59
-32 -48 c-17 -26 -33 -48 -36 -48 -7 0 -80 118 -80 130 0 13 52 92 57 87 2 -2
23 -30 47 -62z m-9644 -82 c-1 -16 -40 -54 -49 -49 -5 3 -7 -2 -4 -12 2 -10
-4 -28 -14 -41 l-19 -23 -27 39 c-15 21 -27 45 -27 52 0 7 19 40 42 72 l41 60
29 -46 c15 -25 28 -48 28 -52z m-202 10 l30 -46 -46 -69 c-25 -38 -48 -65 -52
-61 -25 32 -60 83 -60 90 0 11 84 132 91 133 4 0 20 -21 37 -47z m9978 -119
c17 -31 17 -32 -16 -73 -18 -22 -36 -41 -39 -41 -9 0 -81 115 -81 129 0 6 12
30 27 52 l27 41 33 -38 c18 -22 40 -53 49 -70z m-9902 8 c14 -21 26 -41 26
-45 0 -4 -20 -37 -43 -72 l-44 -65 -32 45 c-18 25 -31 49 -29 53 10 22 82 122
88 122 4 0 19 -17 34 -38z m-184 -41 l31 -50 -47 -70 c-26 -39 -50 -69 -53
-67 -4 3 -21 24 -38 49 l-32 44 50 72 c28 39 52 71 54 71 1 0 17 -22 35 -49z
m9978 -47 l43 -65 -32 -41 -33 -41 -19 24 c-10 13 -30 42 -43 65 l-25 43 27
40 c15 23 29 41 33 41 3 0 25 -30 49 -66z m165 -17 c14 -23 34 -51 46 -61 28
-25 27 -28 -14 -81 l-34 -46 -28 39 c-15 21 -37 54 -47 74 l-19 35 29 41 c16
23 32 42 36 42 3 0 17 -19 31 -43z m-10063 -52 l31 -45 -34 -50 c-19 -27 -37
-47 -41 -43 -4 4 -4 0 -1 -8 3 -9 0 -21 -8 -28 -12 -9 -19 -5 -39 21 -13 18
-28 39 -32 46 -5 9 9 39 38 83 25 38 48 69 51 69 2 0 18 -20 35 -45z m9784 12
c23 -23 66 -96 66 -112 0 -9 -12 -32 -27 -51 l-26 -35 -39 60 c-21 33 -38 65
-38 71 0 10 42 80 48 80 2 0 9 -6 16 -13z m-9975 -62 c19 -26 29 -50 25 -57
-4 -7 -27 -41 -52 -76 l-44 -62 -34 44 c-19 25 -34 48 -34 53 0 11 92 143 100
143 4 0 21 -20 39 -45z m10231 -105 c0 -11 -52 -89 -60 -90 -12 0 -91 141 -84
152 4 7 18 28 32 46 l24 34 44 -66 c24 -36 44 -70 44 -76z m158 21 c23 -38 42
-72 42 -75 0 -4 -15 -27 -34 -52 l-35 -45 -51 75 -51 76 33 45 c18 24 38 44
43 44 6 0 29 -31 53 -68z m-8328 33 c0 -1 -24 -55 -54 -118 l-55 -116 -70 0
c-64 0 -71 2 -71 20 0 11 5 20 11 20 8 0 8 4 1 13 -7 8 -2 29 19 72 15 33 26
48 22 33 -3 -17 -1 -28 6 -28 6 0 11 -5 11 -11 0 -5 -6 -7 -12 -3 -10 5 -10 4
-1 -6 10 -11 15 -11 30 1 15 11 15 10 -1 -9 -11 -12 -26 -20 -33 -18 -21 8
-15 -2 8 -14 17 -9 23 -8 36 7 8 10 11 12 7 4 -5 -10 -3 -12 5 -7 7 5 10 15 6
23 -5 13 -3 14 11 3 13 -12 17 -11 25 1 5 8 7 20 4 27 -3 7 5 12 21 12 20 0
25 4 20 16 -3 8 -2 13 3 10 4 -3 13 6 20 20 13 30 15 56 2 36 -7 -11 -9 -11
-14 2 -5 12 0 15 18 14 14 -1 25 -3 25 -4z m-1980 -59 l31 -45 -22 -40 c-12
-21 -27 -38 -33 -37 -5 1 -10 -5 -11 -13 0 -8 -6 -26 -14 -40 l-14 -24 -33 39
c-19 22 -34 47 -34 55 0 13 88 150 96 150 2 0 17 -20 34 -45z m10035 -42 c9
-18 20 -35 25 -38 18 -11 10 -39 -21 -75 l-31 -35 -16 24 c-10 14 -29 46 -44
71 l-27 47 31 43 31 42 18 -23 c10 -13 26 -38 34 -56z m-10227 -19 l32 -42
-52 -76 c-28 -42 -55 -76 -59 -76 -3 0 -23 20 -43 45 l-37 45 57 81 c31 44 60
77 63 72 4 -4 22 -27 39 -49z m10407 -25 c50 -77 50 -85 7 -137 l-28 -33 -48
75 -47 76 32 45 c18 25 34 45 35 45 2 0 24 -32 49 -71z m169 -28 c8 -15 31
-49 51 -75 l35 -47 -27 -34 c-16 -19 -34 -35 -40 -35 -12 0 -69 71 -94 117
-10 19 -8 28 15 63 14 22 31 40 36 40 5 0 16 -13 24 -29z m-284 -19 c0 -5 18
-37 41 -72 36 -57 39 -66 28 -87 -10 -18 -21 -23 -50 -23 -35 0 -40 4 -67 52
l-30 52 31 43 c29 40 47 54 47 35z m-4910 -277 c-6 -8 -8 -20 -4 -26 5 -8 2
-11 -7 -7 -9 4 -14 -2 -15 -18 -1 -16 2 -21 13 -17 7 3 13 2 12 -3 -1 -5 0
-11 1 -14 4 -12 10 -49 15 -102 l6 -58 -34 0 c-27 0 -36 5 -41 23 -8 29 -7
118 0 185 7 50 8 52 37 52 25 0 27 -2 17 -15z m8 -274 c9 -1 12 -36 12 -141
l0 -140 -41 0 c-41 0 -41 0 -35 31 3 17 6 83 6 145 0 113 0 114 23 110 12 -3
28 -5 35 -5z m72 -11 c-7 -4 -9 -13 -5 -20 5 -8 4 -11 -3 -6 -7 4 -10 -12 -10
-49 0 -31 5 -58 9 -61 5 -3 6 -11 2 -17 -8 -13 -12 -50 -5 -42 3 3 12 -1 20
-8 13 -10 14 -9 7 3 -14 22 -14 37 -1 37 7 0 12 -12 11 -26 0 -19 -5 -26 -18
-24 -10 0 -16 -2 -13 -5 3 -3 0 -12 -7 -20 -9 -11 -4 -11 16 2 15 10 27 14 27
10 0 -5 5 -2 10 6 7 11 10 11 10 2 0 -10 5 -10 21 -1 12 6 19 7 15 1 -3 -5 5
-9 19 -9 14 0 22 3 20 7 -3 4 10 5 28 1 17 -4 42 -5 55 -3 21 3 22 7 23 115 2
131 7 109 11 -49 l3 -111 -35 0 c-19 0 -28 1 -18 4 9 2 19 10 21 17 4 11 0 11
-19 2 -13 -6 -24 -14 -24 -18 0 -5 -47 -8 -105 -8 l-106 0 2 139 1 139 25 0
c16 0 20 -3 13 -8z m-60 -450 l0 -147 -32 -7 c-17 -3 -33 -5 -35 -3 -2 2 -6
73 -9 158 l-6 155 41 -4 41 -4 0 -148z m313 36 c4 -61 7 -129 7 -151 l0 -41
-141 3 c-78 1 -143 4 -146 6 -2 3 -7 71 -10 151 l-6 146 145 -1 145 -1 6 -112z
m295 102 c-2 -7 -7 -16 -13 -20 -5 -4 -2 -10 8 -14 13 -4 17 -18 17 -53 -1
-36 -3 -42 -11 -28 -12 20 -31 13 -22 -8 3 -8 0 -15 -7 -15 -6 0 -8 -5 -4 -12
4 -7 3 -8 -5 -4 -9 6 -9 11 0 22 6 8 9 14 5 14 -4 0 0 10 8 23 8 12 16 26 16
30 2 15 -33 34 -52 29 -23 -6 -23 -28 0 -41 15 -9 14 -10 -7 -11 -17 0 -21 -3
-14 -12 10 -13 14 -53 5 -43 -3 3 -11 0 -19 -7 -11 -9 -12 -7 -7 8 5 12 -1 9
-15 -8 -20 -26 -21 -55 -1 -43 5 3 11 1 15 -5 12 -19 38 -11 32 10 -3 11 -1
23 4 26 5 3 9 2 8 -3 -3 -19 3 -57 8 -45 2 6 9 12 14 12 6 0 6 -7 0 -18 -6
-12 -4 -23 9 -40 l18 -22 10 28 c5 16 8 42 5 58 -4 25 -3 26 7 11 7 -10 9 -29
6 -43 -4 -13 -2 -33 4 -44 12 -22 24 -21 -182 -24 l-108 -1 0 46 c0 25 -3 94
-7 152 l-6 107 141 0 c108 0 141 -3 140 -12z m-8813 -24 c15 -6 45 -64 45 -89
0 -38 -140 -49 -184 -14 -28 22 -35 59 -11 59 8 0 22 11 31 25 13 20 24 25 59
25 24 0 51 -3 60 -6z m16275 -44 c45 -23 51 -50 21 -89 -26 -34 -124 -43 -160
-14 -22 18 -23 22 -12 56 14 41 21 47 65 58 45 10 44 11 86 -11z m-8084 -260
c11 0 14 -29 14 -166 l0 -165 -37 3 -38 3 1 150 c0 162 5 191 30 181 9 -3 22
-6 30 -6z m326 -8 c9 -9 13 -45 14 -110 1 -81 0 -85 -3 -19 -2 46 -8 75 -13
72 -6 -4 -10 7 -10 24 0 17 -5 31 -11 31 -5 0 -7 -6 -3 -12 5 -8 1 -8 -10 1
-15 12 -19 12 -26 1 -4 -7 -6 -19 -3 -27 3 -7 0 -13 -7 -13 -6 0 -8 5 -5 10
11 18 -1 11 -21 -12 -10 -12 -13 -18 -6 -14 6 4 12 3 12 -3 0 -6 6 -8 14 -5 8
3 17 0 22 -7 5 -9 2 -10 -9 -6 -9 3 -19 2 -23 -4 -4 -6 -11 -6 -20 2 -20 16
-18 -5 2 -25 8 -9 10 -16 4 -16 -6 0 -13 7 -16 15 -4 10 -13 13 -26 9 -12 -4
-24 0 -32 11 -11 15 -12 13 -11 -18 1 -25 -2 -34 -9 -29 -6 4 -18 7 -26 7 -8
0 -22 4 -30 10 -13 8 -13 7 -1 -8 7 -9 22 -17 32 -17 10 0 20 -4 23 -9 3 -4
-12 -7 -34 -5 -30 2 -38 0 -33 -12 3 -7 9 -12 13 -9 5 3 6 -4 3 -16 -4 -16 -8
-17 -14 -7 -6 9 -9 10 -9 1 0 -19 32 -53 43 -46 6 3 7 1 3 -6 -4 -6 -12 -8
-18 -5 -7 5 -9 -2 -6 -20 3 -15 3 -24 0 -21 -3 2 -11 0 -18 -6 -11 -9 -13 21
-13 160 l-1 171 135 -2 c93 -2 138 -7 147 -16z m328 -24 c0 -18 3 -57 7 -87 4
-39 3 -52 -5 -47 -6 4 -9 13 -6 21 7 18 -13 55 -31 55 -8 0 -15 -4 -15 -9 0
-13 26 -32 33 -24 4 3 7 4 7 1 0 -2 -12 -15 -27 -29 -20 -17 -23 -18 -10 -3
20 24 11 40 -11 21 -13 -10 -15 -9 -9 7 5 13 3 17 -7 13 -10 -4 -13 -1 -9 8 3
8 9 12 14 9 5 -3 6 2 3 11 -4 10 -2 14 8 10 8 -3 21 2 28 12 12 15 12 16 0 6
-21 -19 -35 -16 -19 4 13 15 12 15 -8 3 -19 -12 -24 -12 -42 4 -12 11 -21 14
-21 8 0 -7 -5 -12 -11 -12 -5 0 -7 5 -3 12 4 7 3 8 -5 4 -6 -4 -8 -12 -5 -18
5 -7 1 -9 -9 -5 -9 3 -18 1 -21 -6 -4 -11 -10 18 -7 36 1 5 -3 6 -8 2 -6 -3
-7 -13 -4 -23 6 -14 4 -15 -9 -5 -8 7 -18 10 -21 6 -4 -3 -7 2 -7 13 0 13 -7
20 -21 21 -14 1 -19 -3 -15 -12 3 -8 1 -17 -4 -20 -13 -8 -13 -25 1 -25 5 0 7
5 3 12 -4 7 -3 8 4 4 7 -4 12 -2 12 5 0 8 3 9 13 0 8 -6 17 -8 20 -4 4 3 7 1
7 -6 0 -8 -6 -11 -16 -7 -31 12 -49 -16 -52 -84 -2 -36 -5 -66 -7 -68 -2 -2
-5 46 -7 107 l-3 111 148 0 147 0 0 -32z m-652 -336 c13 -9 14 -132 0 -132 -4
0 -8 -5 -8 -11 0 -5 4 -8 9 -5 9 6 21 -87 21 -160 0 -39 -3 -44 -22 -45 -13
-1 -33 -3 -45 -4 -22 -2 -23 1 -23 72 0 54 3 72 12 67 6 -4 8 -3 5 3 -4 6 -1
16 7 22 14 12 10 51 -5 51 -11 0 -8 -22 4 -31 4 -3 1 -12 -8 -19 -13 -11 -15
-1 -15 94 l0 106 28 0 c15 0 33 -4 40 -8z m313 -5 c2 -16 2 -17 -4 -53 -4 -24
-1 -31 9 -30 15 2 16 10 6 34 -2 7 2 25 9 39 13 25 14 23 20 -43 4 -38 7 -122
8 -186 l1 -118 -77 0 c-43 0 -115 3 -160 7 l-83 6 0 163 c0 89 3 169 6 178 5
12 29 15 135 15 92 0 129 -4 130 -12z m-293 -581 c1 -110 0 -197 -4 -194 -3 4
-6 71 -7 149 0 86 -4 133 -9 120 -5 -15 -12 -20 -20 -14 -17 10 -56 15 -43 6
13 -11 18 -36 5 -28 -6 4 -10 -20 -10 -68 0 -59 4 -77 20 -94 13 -15 16 -23 7
-26 -8 -3 -6 -11 7 -26 19 -21 19 -21 -6 -21 -24 0 -25 4 -31 68 -10 103 -8
253 4 295 10 36 12 38 47 35 l37 -3 3 -199z m262 182 c0 -9 4 -8 10 2 6 9 10
10 10 3 0 -19 -21 -27 -31 -12 -6 10 -8 7 -6 -9 0 -12 6 -22 12 -22 5 0 2 -5
-8 -11 -14 -8 -15 -14 -7 -24 9 -11 7 -12 -9 -8 -12 3 -18 10 -14 16 3 6 1 7
-6 3 -9 -6 -9 -11 0 -22 6 -8 8 -14 3 -15 -5 0 -17 -2 -27 -4 -14 -3 -17 1
-13 13 3 9 -3 5 -14 -10 -14 -18 -26 -24 -40 -21 -12 3 -20 0 -20 -6 0 -7 5
-9 10 -6 6 3 10 1 10 -5 0 -6 5 -8 13 -4 8 5 8 2 -2 -9 -16 -20 -25 -23 -15
-4 5 9 4 9 -5 1 -7 -6 -14 -20 -16 -30 -2 -11 -4 -21 -4 -23 -1 -2 -7 2 -15 8
-12 10 -15 8 -19 -6 -2 -10 -2 0 -1 22 l4 40 -13 -35 c-12 -30 -14 -32 -19
-13 -3 12 -1 26 5 32 8 8 8 11 0 11 -8 0 -12 27 -12 80 l0 80 119 0 c89 0 120
-3 120 -12z m70 -451 c0 -25 3 -29 11 -17 8 12 10 9 6 -13 -2 -15 0 -30 4 -33
5 -3 10 14 11 38 2 52 15 -183 17 -298 l1 -82 -61 0 c-36 0 -56 3 -49 8 7 5
19 6 27 3 8 -3 13 2 13 13 1 18 1 18 14 1 8 -10 20 -15 30 -11 22 8 21 71 -1
98 -15 17 -15 18 -1 8 14 -11 16 -9 13 25 -2 21 -4 42 -4 47 -1 5 -11 0 -23
-12 -19 -16 -26 -18 -39 -9 -16 12 -19 18 -19 37 0 6 -8 10 -17 10 -11 0 -14
3 -8 8 6 4 11 19 10 35 0 24 -1 25 -12 10 -12 -15 -17 -11 -14 10 0 4 -3 7 -9
7 -5 0 -9 3 -9 8 4 26 -1 34 -16 22 -8 -7 -15 -9 -15 -4 0 5 -7 0 -15 -10 -8
-11 -15 -14 -15 -7 0 7 -5 9 -12 5 -8 -5 -9 -2 -5 10 4 10 3 15 -3 11 -6 -3
-10 -1 -10 4 0 19 -46 12 -65 -9 -24 -27 -32 -14 -34 61 l-2 60 151 -2 150 -1
0 -31z m185 24 c19 -6 23 -10 11 -10 -11 -1 -16 -4 -13 -8 4 -3 0 -14 -8 -23
-14 -16 -14 -18 0 -24 9 -3 13 -11 10 -17 -4 -6 0 -9 11 -7 14 2 19 -3 18 -19
-1 -13 3 -23 8 -23 5 0 6 -4 3 -10 -3 -5 -1 -10 5 -10 6 0 8 -5 4 -11 -4 -8
-10 -5 -17 7 -17 32 -52 48 -41 19 4 -10 0 -13 -15 -10 -12 2 -19 0 -16 -5 6
-9 24 -8 42 3 8 5 11 -1 9 -20 -1 -16 -7 -27 -13 -26 -10 2 -28 -42 -25 -60 1
-4 -5 -10 -13 -13 -8 -3 -12 -10 -9 -15 8 -13 -5 -49 -18 -49 -6 0 -6 6 2 15
10 13 8 21 -3 13 -2 -2 -11 3 -20 10 -14 12 -16 9 -20 -20 -2 -18 -4 8 -5 57
0 50 -3 122 -7 162 -4 40 -5 78 -2 86 6 16 79 21 122 8z m104 -278 c-1 -10 -1
-27 0 -37 1 -18 2 -18 19 -3 10 10 23 17 28 17 4 0 -3 -8 -16 -17 -14 -10 -25
-15 -26 -13 -2 8 -34 -22 -34 -31 0 -5 7 -9 16 -9 8 0 13 4 10 9 -9 14 37 0
57 -18 15 -12 20 -13 26 -2 6 9 11 10 15 3 4 -6 -2 -15 -11 -21 -17 -10 -17
-10 2 -12 11 -1 28 -1 38 0 9 1 17 -2 17 -7 0 -6 -69 -11 -175 -11 l-175 -1 0
26 c0 14 4 23 10 19 5 -3 7 -11 4 -19 -3 -7 2 -13 11 -13 10 0 14 6 10 15 -5
13 -3 13 12 1 9 -8 14 -9 10 -2 -4 6 -1 14 5 17 9 4 8 5 -2 5 -28 -2 -40 1
-40 11 0 5 7 6 17 3 12 -5 14 -3 8 8 -7 12 -6 12 7 1 13 -10 15 -8 11 15 -4
22 -2 25 6 13 8 -11 11 -12 11 -2 0 7 5 10 11 6 8 -4 8 -9 0 -17 -6 -6 -11
-18 -11 -26 0 -24 26 20 27 46 1 16 -3 21 -18 18 -10 -2 -19 0 -19 4 0 5 11 9
25 9 15 0 25 -6 25 -14 0 -8 5 -14 11 -14 5 0 8 4 5 9 -3 5 0 11 8 14 10 4 12
0 9 -14 -5 -18 -3 -19 21 -8 24 11 24 13 8 26 -16 14 -16 14 1 9 11 -3 17 0
17 9 0 8 3 15 6 15 3 0 4 -8 3 -17z"/>
</g>
</svg>
