<?xml version="1.0" standalone="no"?>
<!DOCTYPE svg PUBLIC "-//W3C//DTD SVG 20010904//EN"
 "http://www.w3.org/TR/2001/REC-SVG-20010904/DTD/svg10.dtd">
<svg version="1.0" xmlns="http://www.w3.org/2000/svg"
 width="1890.000000pt" height="1082.000000pt" viewBox="0 0 1890.000000 1082.000000"
 preserveAspectRatio="xMidYMid meet">
<metadata>
Created by potrace 1.15, written by Peter Selinger 2001-2017
</metadata>
<g transform="translate(0.000000,1082.000000) scale(0.100000,-0.100000)"
fill="#000000" stroke="none">
<path d="M0 5420 l0 -5400 9450 0 9450 0 0 5400 0 5400 -9450 0 -9450 0 0
-5400z m870 5097 c0 -32 1 -33 35 -29 30 4 36 1 45 -23 5 -14 10 -44 10 -66 0
-35 -3 -39 -25 -39 -22 0 -25 4 -25 38 0 20 -5 44 -10 52 -9 13 -11 13 -20 0
-5 -8 -10 -32 -10 -52 0 -34 -3 -38 -25 -38 -25 0 -25 0 -25 95 0 95 0 95 25
95 22 0 25 -4 25 -33z m-532 11 c17 -17 15 -54 -4 -72 -14 -14 -13 -19 10 -53
l26 -38 0 63 c0 59 1 62 25 62 24 0 25 -2 25 -65 l0 -65 -52 0 c-51 0 -54 2
-75 38 l-22 37 -1 -37 c0 -35 -2 -38 -30 -38 l-30 0 0 90 0 90 58 0 c32 0 63
-5 70 -12z m9549 -4890 c57 -38 83 -96 83 -184 0 -76 -21 -134 -61 -171 -82
-75 -231 -68 -301 15 -39 46 -51 95 -46 174 7 86 41 141 108 176 63 33 160 28
217 -10z m-2135 12 c48 -14 97 -55 114 -97 21 -49 18 -156 -6 -202 -24 -48
-70 -87 -118 -101 -20 -5 -81 -10 -134 -10 l-98 0 0 210 0 210 103 0 c56 0
119 -5 139 -10z m508 -30 l0 -40 -75 0 -75 0 0 -45 0 -45 70 0 70 0 0 -40 0
-40 -70 0 -70 0 0 -45 0 -45 80 0 80 0 0 -40 0 -40 -130 0 -130 0 0 210 0 210
125 0 125 0 0 -40z m239 -113 c24 -81 47 -144 51 -140 3 4 14 33 22 63 9 30
28 94 43 143 l26 87 50 0 c27 0 49 -4 49 -9 0 -5 -31 -98 -69 -207 l-69 -199
-57 0 -58 0 -68 195 c-37 107 -68 201 -68 208 -1 9 13 12 51 10 l52 -3 45
-148z m601 113 l0 -40 -75 0 -75 0 0 -45 0 -45 70 0 70 0 0 -40 0 -40 -70 0
-70 0 0 -45 0 -45 80 0 80 0 0 -40 0 -40 -130 0 -130 0 0 210 0 210 125 0 125
0 0 -40z m230 -130 l0 -170 80 0 80 0 0 -40 0 -40 -130 0 -130 0 0 210 0 210
50 0 50 0 0 -170z m1018 151 c44 -22 62 -55 62 -112 0 -85 -62 -139 -160 -139
l-50 0 0 -75 0 -75 -50 0 -50 0 0 210 0 210 105 0 c85 0 113 -4 143 -19z m422
-21 l0 -40 -70 0 -70 0 0 -45 0 -45 65 0 65 0 0 -40 0 -40 -65 0 -65 0 0 -45
0 -45 75 0 75 0 0 -40 0 -40 -125 0 -125 0 0 210 0 210 120 0 120 0 0 -40z
m373 29 c51 -27 67 -50 67 -102 0 -45 -4 -54 -40 -88 -34 -33 -37 -39 -23 -50
16 -14 81 -107 102 -146 11 -23 11 -23 -44 -23 l-55 0 -46 73 c-48 74 -60 87
-81 87 -9 0 -13 -23 -13 -80 l0 -80 -50 0 -50 0 0 210 0 210 106 0 c58 0 115
-5 127 -11z m-4155 -805 c19 -5 22 -13 22 -54 l0 -47 -46 15 c-110 36 -204
-56 -173 -172 23 -87 98 -113 202 -71 15 6 17 1 17 -38 0 -25 -5 -49 -11 -53
-23 -14 -146 -17 -185 -4 -174 56 -181 333 -9 411 40 18 136 25 183 13z m1740
0 c19 -5 22 -13 22 -54 l0 -47 -46 15 c-110 36 -204 -56 -173 -172 23 -87 98
-113 202 -71 15 6 17 1 17 -38 0 -25 -5 -49 -11 -53 -23 -14 -146 -17 -185 -4
-174 56 -181 333 -9 411 40 18 136 25 183 13z m3700 0 c19 -5 22 -13 22 -51 0
-43 -1 -45 -22 -38 -45 15 -118 17 -134 4 -30 -25 -12 -52 61 -91 38 -20 77
-46 87 -58 48 -59 26 -148 -44 -180 -49 -22 -146 -27 -197 -9 -28 10 -31 15
-31 55 0 48 4 51 46 29 38 -19 118 -20 134 0 22 27 6 50 -65 87 -38 20 -77 46
-87 58 -48 59 -26 148 44 180 43 19 138 26 186 14z m-6208 -44 l0 -40 -60 0
-60 0 0 -170 0 -170 -56 0 -57 0 5 170 5 170 -58 0 -59 0 0 40 0 40 170 0 170
0 0 -40z m360 0 l0 -40 -75 0 -75 0 0 -45 0 -45 71 0 70 0 -3 -37 -3 -38 -67
-3 -68 -3 0 -44 0 -45 80 0 80 0 0 -40 0 -40 -132 0 -133 0 3 210 3 210 124 0
125 0 0 -40z m660 -45 l0 -85 85 0 85 0 0 85 0 85 50 0 50 0 0 -210 0 -210
-50 0 -49 0 -3 83 -3 82 -80 0 -80 0 -3 -82 -3 -83 -49 0 -50 0 0 210 0 210
50 0 50 0 0 -85z m614 -47 c44 -70 84 -127 89 -127 4 -1 7 58 7 129 l0 130 45
0 45 0 0 -210 0 -210 -49 0 -48 0 -89 135 c-49 74 -91 135 -94 135 -3 0 -4
-61 -2 -135 l4 -135 -51 0 -51 0 0 210 0 211 56 -3 56 -3 82 -127z m446 -78
l0 -210 -50 0 -50 0 0 210 0 210 50 0 50 0 0 -210z m875 13 c39 -108 71 -203
73 -210 3 -9 -11 -13 -51 -13 l-53 0 -15 48 -15 47 -69 0 -69 0 -17 -45 c-16
-45 -17 -45 -68 -48 -28 -2 -51 1 -51 5 0 4 32 99 72 210 l73 203 60 0 60 0
70 -197z m285 27 l0 -170 80 0 80 0 0 -40 0 -40 -130 0 -130 0 0 210 0 210 50
0 50 0 0 -170z m795 -40 l72 -205 -45 -3 c-60 -4 -70 1 -77 42 -10 49 -24 57
-96 54 l-62 -3 -14 -47 -14 -48 -54 0 c-30 0 -55 2 -55 4 0 4 123 341 142 389
10 27 13 28 70 25 l60 -3 73 -205z m375 78 l85 -133 3 133 3 132 49 0 50 0 0
-210 0 -210 -52 0 -53 0 -90 138 -90 137 -3 -137 -3 -138 -51 0 -51 0 7 38 c3
20 6 115 6 210 l0 172 53 0 52 0 85 -132z m635 -65 c39 -108 71 -203 73 -210
3 -9 -11 -13 -51 -13 l-53 0 -15 48 -15 47 -69 0 -69 0 -17 -45 c-16 -45 -17
-45 -68 -48 -28 -2 -51 1 -51 5 0 4 32 99 72 210 l73 203 60 0 60 0 70 -197z
m285 27 l0 -170 80 0 80 0 0 -40 0 -40 -130 0 -130 0 0 210 0 210 50 0 50 0 0
-170z m325 93 c17 -40 34 -76 38 -79 4 -4 23 30 43 75 l37 81 54 0 53 0 -70
-140 c-67 -133 -70 -143 -70 -210 l0 -70 -50 0 -50 0 0 75 c0 73 -2 80 -65
205 -36 71 -65 132 -65 135 0 3 26 5 57 3 l57 -3 31 -72z m1015 37 l0 -40 -60
0 -60 0 0 -170 0 -170 -50 0 -50 0 0 170 0 170 -60 0 -60 0 0 40 0 40 170 0
170 0 0 -40z m-3352 -897 l2 -313 -770 0 -770 0 0 308 c0 170 3 312 7 315 3 4
349 6 767 5 l761 -3 3 -312z m1450 0 l2 -313 -705 0 -705 0 0 308 c0 170 3
312 7 315 3 4 320 6 702 5 l696 -3 3 -312z"/>
<path d="M9731 5577 c-45 -23 -66 -63 -66 -127 0 -97 61 -156 132 -128 87 33
100 200 20 248 -37 23 -53 24 -86 7z"/>
<path d="M7610 5449 l0 -132 50 5 c56 6 86 26 106 75 41 96 -17 183 -121 183
l-35 0 0 -131z"/>
<path d="M8040 3900 l0 -280 730 0 730 0 0 280 0 280 -730 0 -730 0 0 -280z
m520 50 c13 -13 20 -33 20 -60 0 -51 -27 -80 -74 -80 -68 0 -98 88 -50 141 23
25 78 25 104 -1z"/>
<path d="M9620 3900 l0 -280 665 0 665 0 0 280 0 280 -665 0 -665 0 0 -280z"/>
</g>
</svg>
